<?xml version="1.0" encoding="UTF-8" standalone="no"?>
<!-- Generator: Fusion 360, Shaper Origin Export Add-In, Version 1.6.3  -->

<svg
   shaper:fusionaddin="version:1.6.3"
   width="11.4cm"
   height="5.5cm"
   version="1.1"
   x="0cm"
   y="0cm"
   viewBox="0 0 11.4 5.5"
   enable-background="new 0 0 11.4 5.5"
   xml:space="preserve"
   id="svg1331"
   sodipodi:docname="AHv2ink.svg"
   inkscape:version="1.1.2 (b8e25be833, 2022-02-05)"
   xmlns:inkscape="http://www.inkscape.org/namespaces/inkscape"
   xmlns:sodipodi="http://sodipodi.sourceforge.net/DTD/sodipodi-0.dtd"
   xmlns="http://www.w3.org/2000/svg"
   xmlns:svg="http://www.w3.org/2000/svg"
   xmlns:shaper="http://www.shapertools.com/namespaces/shaper"><defs
     id="defs1335" /><sodipodi:namedview
     id="namedview1333"
     pagecolor="#ffffff"
     bordercolor="#666666"
     borderopacity="1.0"
     inkscape:pageshadow="2"
     inkscape:pageopacity="0.0"
     inkscape:pagecheckerboard="0"
     inkscape:document-units="cm"
     showgrid="false"
     inkscape:zoom="1.128276"
     inkscape:cx="335.46756"
     inkscape:cy="81.983486"
     inkscape:window-width="1920"
     inkscape:window-height="991"
     inkscape:window-x="-9"
     inkscape:window-y="-9"
     inkscape:window-maximized="1"
     inkscape:current-layer="svg1331" /><path
     d="M11.4,0 L0,0 0,5.5 11.4,5.5 11.4,0z"
     transform="matrix(1,0,0,-1,-0,5.5)"
     fill="rgb(0,0,0)"
     shaper:cutDepth="0.003"
     stroke-linecap="round"
     stroke-linejoin="round"
     id="path1319"
     style="fill:none;stroke:#0000ff;stroke-opacity:1;stroke-width:0.02;stroke-miterlimit:4;stroke-dasharray:none" /><path
     d="M10.4,1 a0.2,0.2 0 1,1 0.4,0 a0.2,0.2 0 1,1 -0.4,0z"
     transform="matrix(1,0,0,-1,-0,5.5)"
     fill="rgb(255,255,255)"
     stroke="rgb(0,0,0)"
     stroke-width="0.0010cm"
     stroke-linecap="round"
     stroke-linejoin="round"
     shaper:cutDepth="0.003"
     id="path1321"
     style="fill:none;stroke:#0000ff;stroke-opacity:1;stroke-width:0.02;stroke-miterlimit:4;stroke-dasharray:none" /><path
     d="M10.4,4.5 a0.2,0.2 0 1,1 0.4,0 a0.2,0.2 0 1,1 -0.4,0z"
     transform="matrix(1,0,0,-1,-0,5.5)"
     fill="rgb(255,255,255)"
     stroke="rgb(0,0,0)"
     stroke-width="0.0010cm"
     stroke-linecap="round"
     stroke-linejoin="round"
     shaper:cutDepth="0.003"
     id="path1323"
     style="fill:none;stroke:#0000ff;stroke-opacity:1;stroke-width:0.02;stroke-miterlimit:4;stroke-dasharray:none" /><path
     d="M0.66,0.29 a0.15,0.15 0 1,1 0.3,0 a0.15,0.15 0 1,1 -0.3,0z"
     transform="matrix(1,0,0,-1,-0,5.5)"
     fill="rgb(255,255,255)"
     stroke="rgb(0,0,0)"
     stroke-width="0.0010cm"
     stroke-linecap="round"
     stroke-linejoin="round"
     shaper:cutDepth="0.003"
     id="path1325"
     style="fill:none;stroke:#0000ff;stroke-opacity:1;stroke-width:0.02;stroke-miterlimit:4;stroke-dasharray:none" /><path
     d="M6.05,3.62 a0.15,0.15 0 1,1 0.3,0 a0.15,0.15 0 1,1 -0.3,0z"
     transform="matrix(1,0,0,-1,-0,5.5)"
     fill="rgb(255,255,255)"
     stroke="rgb(0,0,0)"
     stroke-width="0.0010cm"
     stroke-linecap="round"
     stroke-linejoin="round"
     shaper:cutDepth="0.003"
     id="path1327"
     style="fill:none;stroke:#0000ff;stroke-opacity:1;stroke-width:0.02;stroke-miterlimit:4;stroke-dasharray:none" /><path
     d="M8.88,0.29 a0.15,0.15 0 1,1 0.3,0 a0.15,0.15 0 1,1 -0.3,0z"
     transform="matrix(1,0,0,-1,-0,5.5)"
     fill="rgb(255,255,255)"
     stroke="rgb(0,0,0)"
     stroke-width="0.0010cm"
     stroke-linecap="round"
     stroke-linejoin="round"
     shaper:cutDepth="0.003"
     id="path1329"
     style="fill:none;stroke:#0000ff;stroke-opacity:1;stroke-width:0.02;stroke-miterlimit:4;stroke-dasharray:none" /></svg>
