<?xml version="1.0" encoding="UTF-8" standalone="no"?>
<!-- Created with Inkscape (http://www.inkscape.org/) -->

<svg
   width="30.349449mm"
   height="204.54599mm"
   viewBox="0 0 30.349449 204.54599"
   version="1.1"
   id="svg1843"
   inkscape:version="1.1.2 (b8e25be833, 2022-02-05)"
   sodipodi:docname="zijkant.svg"
   xmlns:inkscape="http://www.inkscape.org/namespaces/inkscape"
   xmlns:sodipodi="http://sodipodi.sourceforge.net/DTD/sodipodi-0.dtd"
   xmlns="http://www.w3.org/2000/svg"
   xmlns:svg="http://www.w3.org/2000/svg">
  <sodipodi:namedview
     id="namedview1845"
     pagecolor="#ffffff"
     bordercolor="#666666"
     borderopacity="1.0"
     inkscape:pageshadow="2"
     inkscape:pageopacity="0.0"
     inkscape:pagecheckerboard="0"
     inkscape:document-units="mm"
     showgrid="false"
     fit-margin-top="0"
     fit-margin-left="0"
     fit-margin-right="0"
     fit-margin-bottom="0"
     inkscape:zoom="2.8436027"
     inkscape:cx="26.902492"
     inkscape:cy="282.21242"
     inkscape:window-width="1920"
     inkscape:window-height="991"
     inkscape:window-x="-9"
     inkscape:window-y="-9"
     inkscape:window-maximized="1"
     inkscape:current-layer="layer1" />
  <defs
     id="defs1840" />
  <g
     inkscape:label="Laag 1"
     inkscape:groupmode="layer"
     id="layer1"
     transform="translate(-171.96943,-14.371657)">
    <path
       d="m 189.30888,209.15764 a 2,2 0 1 0 -4,0 2,2 0 1 0 4,0 z"
       style="fill:none;stroke:#0000ff;stroke-width:0.02;stroke-miterlimit:4;stroke-dasharray:none;stroke-opacity:1"
       id="path853"
       inkscape:connector-curvature="0" />
    <path
       d="m 200.30888,211.09994 v 5.80771 h -4 v 1.99999 h -6 v -1.99999 h -6 v 1.99999 h -6 v -1.99999 h -6 v -5.80771 h 2 v -7.80769 h -2 v -7.8077 h 2 v -7.80766 h -2 v -7.8077 h 2 v -7.8077 h -2 v -7.80769 h 2 v -7.8077 h -2 v -7.80769 h 2 v -7.8077 h -2 v -7.80769 h 2 v -7.80767 h -2 v -5.80771 h 6 v -1.99999 h 6 v 1.99999 h 6 v -1.99999 h 6 v 1.99999 h 4 v 5.80771 h 2 v 7.80767 h -2 v 7.80769 h 2 v 7.8077 h -2 v 7.80769 h 2 v 7.8077 h -2 v 7.80769 h 2 v 7.8077 h -2 v 7.8077 h 2 v 7.80766 h -2 v 7.8077 h 2 v 7.80769 z"
       style="fill:none;stroke:#0000ff;stroke-width:0.02;stroke-miterlimit:4;stroke-dasharray:none;stroke-opacity:1"
       id="path855"
       inkscape:connector-curvature="0" />
    <path
       d="m 196.71301,22.778023 a 2,2 0 1 0 -4,0 2,2 0 1 0 4,0 z"
       style="fill:none;stroke:#0000ff;stroke-width:0.02;stroke-miterlimit:4;stroke-dasharray:none;stroke-opacity:1"
       id="path859"
       inkscape:connector-curvature="0" />
    <path
       d="m 173.97943,108.07395 v 5.80771 h 4 v 1.99998 h 6 v -1.99998 h 6 v 1.99998 h 6 v -1.99998 h 6 v -5.80771 h -2 v -7.8077 h 2 v -7.807693 h -2 v -7.807669 h 2 v -7.807695 h -2 v -7.807696 h 2 v -7.807695 h -2 v -7.807695 h 2 v -7.807696 h -2 v -7.807695 h 2 v -7.807695 h -2 v -7.807669 h 2 v -5.80771 h -6 v -1.999985 h -6 v 1.999985 h -6 v -1.999985 h -6 v 1.999985 h -4 v 5.80771 h -2 v 7.807669 h 2 v 7.807695 h -2 v 7.807695 h 2 v 7.807696 h -2 v 7.807695 h 2 v 7.807695 h -2 v 7.807696 h 2 v 7.807695 h -2 v 7.807669 h 2 v 7.807693 h -2 v 7.8077 z"
       style="fill:none;stroke:#0000ff;stroke-width:0.02;stroke-miterlimit:4;stroke-dasharray:none;stroke-opacity:1"
       id="path861"
       inkscape:connector-curvature="0" />
    <path
       d="m 181.54149,23.026282 a 2,2 0 1 0 -4,0 2,2 0 1 0 4,0 z"
       style="fill:none;stroke:#0000ff;stroke-width:0.02;stroke-miterlimit:4;stroke-dasharray:none;stroke-opacity:1"
       id="path859-6"
       inkscape:connector-curvature="0" />
    <path
       d="m 195.60079,106.85483 a 2,2 0 1 0 -4,0 2,2 0 1 0 4,0 z"
       style="fill:none;stroke:#0000ff;stroke-width:0.02;stroke-miterlimit:4;stroke-dasharray:none;stroke-opacity:1"
       id="path859-3"
       inkscape:connector-curvature="0" />
    <path
       d="m 183.47464,107.5578 a 2,2 0 1 0 -4,0 2,2 0 1 0 4,0 z"
       style="fill:none;stroke:#0000ff;stroke-width:0.02;stroke-miterlimit:4;stroke-dasharray:none;stroke-opacity:1"
       id="path859-37"
       inkscape:connector-curvature="0" />
    <circle
       style="fill:none;stroke:#0000ff;stroke-width:0.00996678;stroke-miterlimit:4;stroke-dasharray:none;stroke-opacity:1"
       id="path110"
       cx="176.93175"
       cy="65.403389"
       r="1.4950166" />
    <circle
       style="fill:none;stroke:#0000ff;stroke-width:0.00996678;stroke-miterlimit:4;stroke-dasharray:none;stroke-opacity:1"
       id="path110-6"
       cx="197.49474"
       cy="65.310341"
       r="1.4950166" />
    <circle
       style="fill:none;stroke:#0000ff;stroke-width:0.00996678;stroke-miterlimit:4;stroke-dasharray:none;stroke-opacity:1"
       id="path110-3"
       cx="177.11543"
       cy="168.53394"
       r="1.4950166" />
    <circle
       style="fill:none;stroke:#0000ff;stroke-width:0.00996678;stroke-miterlimit:4;stroke-dasharray:none;stroke-opacity:1"
       id="path110-6-0"
       cx="197.77191"
       cy="168.53394"
       r="1.4950166" />
  </g>
</svg>
